PathFileType	4	(X/Y/Z)	./resultDataOpenSim/trcMotMarkerGrf/sub10/qtm-01-08.trc
DataRate	CameraRate	NumFrames	NumMarkers	Units	OrigDataRate	OrigDataStartFrame	OrigNumFrames
250.000000	250.000000	8	24	m	250.000000	218	435
Frame#	Time	L.Toe.Tip			R.Toe.Tip			L.Ankle.Lat			R.Ankle.Lat			L.Ankle.Med			R.Ankle.Med			L.Heel			R.Heel			L.Knee.Lat			R.Knee.Lat			L.Knee.Med			R.Knee.Med			L.Thigh.Upper			R.Thigh.Upper			L.ASIS			R.ASIS			V.Sacral			L.Acromium			R.Acromium			C7			L.Elbow			R.Elbow			L.Wrist.Lat			R.Wrist.Lat
		X1	Y1	Z1	X2	Y2	Z2	X3	Y3	Z3	X4	Y4	Z4	X5	Y5	Z5	X6	Y6	Z6	X7	Y7	Z7	X8	Y8	Z8	X9	Y9	Z9	X10	Y10	Z10	X11	Y11	Z11	X12	Y12	Z12	X13	Y13	Z13	X14	Y14	Z14	X15	Y15	Z15	X16	Y16	Z16	X17	Y17	Z17	X18	Y18	Z18	X19	Y19	Z19	X20	Y20	Z20	X21	Y21	Z21	X22	Y22	Z22	X23	Y23	Z23	X24	Y24	Z24

218	0.868	0.031078629	0.041656205	-0.17508568	0.13772213	0.065519321	-0.0011647929	-0.10280349	0.068043675	-0.20957408	-0.00053659476	0.10016299	-0.012415967	-0.098694217	0.091495024	-0.12479301	0.049185789	0.11783921	-0.084805241	-0.17089972	0.040951995	-0.1683977	-0.034994392	0.075233207	-0.072915434	-0.024378731	0.44834451	-0.24573623	0.1148963	0.48066945	0.020385696	-0.030786868	0.42896147	-0.12323753	0.15960283	0.48880838	-0.10076385	0.0066272926	0.84265643	-0.31081878	-0.02428817	0.86833573	0.064471615	0.057725358	0.95516495	-0.24326715	0.048761802	0.96428253	-0.0023384164	-0.14336466	0.97631473	-0.13147706	-0.0039639893	1.4331171	-0.27952587	-0.031444453	1.4238757	0.045124535	-0.10382537	1.4543579	-0.13193264	-0.066298138	1.0932771	-0.33822545	-0.11408445	1.0848573	0.073081423	0.088273831	0.90307928	-0.35548922	0.010033087	0.87450191	0.10640695
219	0.872	0.031152679	0.041638936	-0.17510073	0.15844339	0.066133501	-0.00040279459	-0.10282903	0.068100256	-0.20928187	0.019343829	0.097122083	-0.011956051	-0.098327282	0.091631222	-0.12472737	0.068653012	0.11603841	-0.08435055	-0.17100743	0.04131872	-0.16809185	-0.014346009	0.071204198	-0.072447734	-0.023081346	0.44813229	-0.24571993	0.12434506	0.48141093	0.020456504	-0.03039067	0.42893794	-0.12266542	0.16836559	0.49019677	-0.10084034	0.01127554	0.84229297	-0.31091459	-0.017564979	0.86904589	0.064656549	0.063014435	0.95467466	-0.24382151	0.055618325	0.96452524	-0.0029595065	-0.13746801	0.97618803	-0.1309343	0.0023052999	1.4330421	-0.2793204	-0.02535777	1.4236801	0.045284546	-0.097572425	1.4542524	-0.1318054	-0.058051831	1.0925888	-0.3384294	-0.11005195	1.0855028	0.073483193	0.099530773	0.90459579	-0.35446241	0.010901283	0.8736888	0.10830425
220	0.876	0.031198351	0.041627055	-0.17509745	0.1791468	0.066818753	0.00028037884	-0.10291748	0.06817331	-0.20887661	0.039287504	0.094208883	-0.011481311	-0.097873013	0.09174476	-0.12474577	0.088207757	0.11433814	-0.083883213	-0.17106434	0.041643082	-0.16777396	0.0063518624	0.067345613	-0.072034369	-0.021776939	0.44789971	-0.24570057	0.13361173	0.48199666	0.020584231	-0.029496055	0.4288994	-0.122392	0.17701626	0.49138898	-0.10087355	0.015741079	0.84188564	-0.31104786	-0.01059461	0.8695754	0.064748704	0.068387262	0.95414263	-0.2443553	0.062478197	0.96465276	-0.0035366468	-0.13156036	0.97593292	-0.13042417	0.008563801	1.4328796	-0.27912383	-0.019300745	1.4233901	0.045450832	-0.091330469	1.4540632	-0.13167151	-0.049882202	1.0918589	-0.33862545	-0.10602001	1.0860576	0.073913675	0.11071227	0.90607819	-0.35342942	0.011867251	0.87285698	0.11021259
221	0.88	0.031193155	0.041625045	-0.17506199	0.19982696	0.067590331	0.0008798607	-0.10310024	0.068280475	-0.20834992	0.059286945	0.091414231	-0.010918588	-0.097482235	0.091826126	-0.12475936	0.10784672	0.11274404	-0.08341188	-0.17106414	0.041910668	-0.16745738	0.027134188	0.06366636	-0.071676504	-0.020470503	0.44765359	-0.24568343	0.14271132	0.4824163	0.020752909	-0.028100304	0.42885578	-0.12241409	0.18553323	0.49237809	-0.10086332	0.020009268	0.84142419	-0.31122213	-0.0035696379	0.86996282	0.064752591	0.073773099	0.95355675	-0.24488783	0.069345536	0.96466667	-0.0040723533	-0.12569605	0.97557971	-0.12975451	0.014799285	1.4326286	-0.27893145	-0.01327061	1.4230045	0.045621028	-0.085100898	1.4537801	-0.13153417	-0.041701017	1.0910777	-0.3388912	-0.10197948	1.0865228	0.074391234	0.12183157	0.90752732	-0.35238776	0.01305544	0.87203604	0.1121675
222	0.884	0.031162711	0.041624564	-0.1750176	0.22047998	0.068469527	0.0013934881	-0.10331264	0.068419867	-0.20780104	0.079350799	0.088736158	-0.010258749	-0.097181282	0.091882056	-0.12472374	0.12753648	0.11129934	-0.082964849	-0.17102614	0.042134223	-0.16714391	0.04800985	0.060175641	-0.071348471	-0.01915717	0.4474134	-0.24568009	0.15165504	0.48267134	0.020962986	-0.026521461	0.42881641	-0.12252742	0.19388433	0.49316346	-0.10079461	0.024160743	0.84091253	-0.31141375	0.0034212608	0.8702238	0.064702091	0.079109491	0.9529047	-0.24542965	0.076229656	0.96456371	-0.0045731128	-0.12004586	0.97517398	-0.12868883	0.021021393	1.4322891	-0.2787418	-0.0072537814	1.4225214	0.045787986	-0.078879312	1.4533994	-0.13139573	-0.033412508	1.0902184	-0.33924276	-0.097919032	1.0868965	0.074953284	0.1329121	0.90894617	-0.35133014	0.014517911	0.87123503	0.11419787
223	0.888	0.031189978	0.041607792	-0.17503574	0.24110216	0.069493317	0.001813749	-0.10342147	0.068579229	-0.20739141	0.099495857	0.086182557	-0.0096614917	-0.096944029	0.091937474	-0.1246016	0.14719311	0.11010207	-0.082587164	-0.17097878	0.042340849	-0.16682399	0.068948783	0.056878427	-0.070992709	-0.017824437	0.44720605	-0.245714	0.16046137	0.48277894	0.021232574	-0.024995499	0.42877535	-0.12257066	0.20203813	0.49374597	-0.10064422	0.028357115	0.84036615	-0.31159627	0.01056588	0.87041894	0.06472115	0.084388157	0.95219266	-0.24597623	0.083136403	0.96433762	-0.0050437212	-0.11476944	0.97476552	-0.12702196	0.027244573	1.4318634	-0.27856064	-0.0012364212	1.4219425	0.045947024	-0.072663533	1.45293	-0.13125275	-0.025045666	1.0892585	-0.3395828	-0.093835765	1.0871757	0.075617112	0.14397363	0.9103387	-0.35025167	0.016127386	0.8704239	0.11625952
224	0.892	0.031315895	0.041581573	-0.1751695	0.26168824	0.070715957	0.0021276369	-0.10335809	0.068749754	-0.20720554	0.11974843	0.083739869	-0.0093637961	-0.096750047	0.09201282	-0.12437217	0.16674218	0.10921827	-0.082306989	-0.17093924	0.042549227	-0.16649059	0.089921885	0.053783798	-0.070589694	-0.016447932	0.4470517	-0.24581451	0.16913784	0.4827393	0.021575881	-0.023546515	0.42871867	-0.12251674	0.20998658	0.4941255	-0.10040006	0.032736271	0.8398031	-0.31177275	0.018103301	0.87060658	0.064927098	0.089643796	0.95143998	-0.24652342	0.090061962	0.96398858	-0.0054861818	-0.10980104	0.97437938	-0.12481096	0.033475889	1.4313528	-0.27839544	0.0047859025	1.4212696	0.046101411	-0.066463943	1.4523887	-0.13110131	-0.016652865	1.088193	-0.33984444	-0.089749808	1.0873556	0.076335927	0.15502344	0.91170583	-0.3491536	0.017651236	0.86954863	0.1182483
225	0.896	0.031469134	0.041584668	-0.17538961	0.2822339	0.072193297	0.0023216785	-0.10317164	0.068920167	-0.20718716	0.14010638	0.081391853	-0.0094244858	-0.096589376	0.092117312	-0.12404633	0.18618382	0.10860066	-0.082101171	-0.17090885	0.042765504	-0.16614954	0.11093265	0.050924215	-0.070220259	-0.01499274	0.44695049	-0.24600118	0.17767391	0.48252761	0.021997662	-0.022090709	0.42863103	-0.12243261	0.21775269	0.49430402	-0.10006493	0.037285659	0.83922974	-0.31197272	0.025961459	0.87075069	0.065274176	0.094905744	0.95065596	-0.24708568	0.097002912	0.96352725	-0.0059002869	-0.10489071	0.97400452	-0.12242546	0.039719166	1.4307576	-0.27824265	0.010804272	1.4204992	0.04625623	-0.060300538	1.4517888	-0.13094241	-0.0081972874	1.0870444	-0.34008866	-0.085690007	1.0874305	0.077026632	0.16605007	0.91304088	-0.34804127	0.018957491	0.86857878	0.12009845
